<?xml version="1.0" standalone="no"?>
<!DOCTYPE svg PUBLIC "-//W3C//DTD SVG 20010904//EN"
 "http://www.w3.org/TR/2001/REC-SVG-20010904/DTD/svg10.dtd">
<svg version="1.0" xmlns="http://www.w3.org/2000/svg"
 width="128.000000pt" height="128.000000pt" viewBox="0 0 128.000000 128.000000"
 preserveAspectRatio="xMidYMid meet">
<metadata>
Created by potrace 1.11, written by Peter Selinger 2001-2013
</metadata>
<g transform="translate(0.000000,128.000000) scale(0.100000,-0.100000)"
fill="#000000" stroke="none">
<path d="M654 865 c-60 -96 -112 -175 -115 -175 -3 0 -33 43 -67 95 -38 59
-66 93 -74 90 -7 -3 -31 -37 -53 -75 -22 -38 -43 -70 -46 -70 -3 0 -11 -11
-17 -25 -6 -13 -70 -117 -142 -231 -72 -114 -129 -213 -126 -220 8 -21 1256
-21 1256 0 0 8 -97 169 -216 357 -249 397 -265 421 -280 426 -5 2 -59 -75
-120 -172z"/>
</g>
</svg>
